<svg width="50" height="50" viewBox="0 0 50 50" fill="none" xmlns="http://www.w3.org/2000/svg">
<circle cx="25" cy="25" r="24.5" fill="white" stroke="#AA322E" stroke-dasharray="2 3"/>
<path d="M25 21V25L27.5 27.5" stroke="#AA322E" stroke-opacity="0.9" stroke-width="1.5" stroke-linecap="round" stroke-linejoin="round"/>
<path d="M18.6041 18.6041L18.0738 18.0738V18.0738L18.6041 18.6041ZM17.3378 19.8705L16.5878 19.8743C16.5898 20.2856 16.9227 20.6184 17.334 20.6205L17.3378 19.8705ZM19.8795 20.6333C20.2938 20.6354 20.6312 20.3013 20.6333 19.8871C20.6354 19.4729 20.3013 19.1354 19.8871 19.1333L19.8795 20.6333ZM18.075 17.3212C18.0729 16.907 17.7354 16.5729 17.3212 16.575C16.907 16.5771 16.5729 16.9145 16.575 17.3287L18.075 17.3212ZM16.8266 23.7849C16.8829 23.3745 16.5958 22.9963 16.1854 22.94C15.775 22.8838 15.3968 23.1708 15.3405 23.5812L16.8266 23.7849ZM31.8622 18.1378C28.042 14.3176 21.8687 14.2789 18.0738 18.0738L19.1345 19.1345C22.3336 15.9354 27.5571 15.9539 30.8016 19.1984L31.8622 18.1378ZM18.1378 31.8622C21.958 35.6824 28.1313 35.7211 31.9262 31.9262L30.8655 30.8655C27.6664 34.0646 22.4429 34.0461 19.1984 30.8016L18.1378 31.8622ZM31.9262 31.9262C35.7211 28.1313 35.6824 21.958 31.8622 18.1378L30.8016 19.1984C34.0461 22.4429 34.0646 27.6664 30.8655 30.8655L31.9262 31.9262ZM18.0738 18.0738L16.8074 19.3402L17.8681 20.4009L19.1345 19.1345L18.0738 18.0738ZM17.334 20.6205L19.8795 20.6333L19.8871 19.1333L17.3415 19.1205L17.334 20.6205ZM18.0878 19.8668L18.075 17.3212L16.575 17.3287L16.5878 19.8743L18.0878 19.8668ZM15.3405 23.5812C14.9391 26.5099 15.8739 29.5984 18.1378 31.8622L19.1984 30.8016C17.2779 28.881 16.4866 26.2652 16.8266 23.7849L15.3405 23.5812Z" fill="#AA322E" fill-opacity="0.9"/>
</svg>
