<svg width="26" height="22" viewBox="0 0 26 22" fill="none" xmlns="http://www.w3.org/2000/svg">
<path fill-rule="evenodd" clip-rule="evenodd" d="M0.166992 20.6133C0.166992 20.1236 0.567854 19.7267 1.06234 19.7267H24.9383C25.4328 19.7267 25.8337 20.1236 25.8337 20.6133C25.8337 21.103 25.4328 21.5 24.9383 21.5H1.06234C0.567854 21.5 0.166992 21.103 0.166992 20.6133Z" fill="#1C274C"/>
<path fill-rule="evenodd" clip-rule="evenodd" d="M3.30511 1.53879C2.25614 2.57759 2.25614 4.2495 2.25614 7.59333V13.5044C2.25614 15.7337 2.25614 16.8483 2.95545 17.5408C3.65476 18.2333 4.78029 18.2333 7.03133 18.2333H18.9693C21.2204 18.2333 22.3459 18.2333 23.0452 17.5408C23.7445 16.8483 23.7445 15.7337 23.7445 13.5044V7.59333C23.7445 4.2495 23.7445 2.57759 22.6955 1.53879C21.6466 0.5 19.9583 0.5 16.5817 0.5H9.41893C6.04236 0.5 4.35407 0.5 3.30511 1.53879ZM8.52358 14.6867C8.52358 14.197 8.92444 13.8 9.41893 13.8H16.5817C17.0762 13.8 17.4771 14.197 17.4771 14.6867C17.4771 15.1764 17.0762 15.5733 16.5817 15.5733H9.41893C8.92444 15.5733 8.52358 15.1764 8.52358 14.6867Z" fill="#1C274C"/>
</svg>
