<svg width="28" height="28" viewBox="0 0 28 28" fill="none" xmlns="http://www.w3.org/2000/svg">
<path fill-rule="evenodd" clip-rule="evenodd" d="M14.0605 2.33203H13.9401C11.9799 2.33201 10.4272 2.332 9.21204 2.49822C7.96145 2.66929 6.94924 3.02973 6.15099 3.84191C5.35273 4.65409 4.99847 5.68395 4.83034 6.95635C4.66696 8.1927 4.66698 9.77245 4.66699 11.7669V16.2305C4.66698 18.2249 4.66696 19.8047 4.83034 21.041C4.99847 22.3134 5.35273 23.3433 6.15099 24.1555C6.94924 24.9677 7.96145 25.3281 9.21203 25.4992C10.4272 25.6654 11.9798 25.6654 13.9401 25.6654H14.0605C16.0208 25.6654 17.5735 25.6654 18.7886 25.4992C20.0392 25.3281 21.0514 24.9677 21.8497 24.1555C22.6479 23.3433 23.0022 22.3134 23.1703 21.041C23.3337 19.8047 23.3337 18.225 23.3337 16.2305V11.7669C23.3337 9.77249 23.3337 8.1927 23.1703 6.95635C23.0022 5.68395 22.6479 4.65409 21.8497 3.84191C21.0514 3.02973 20.0392 2.66929 18.7886 2.49822C17.5735 2.332 16.0208 2.33201 14.0605 2.33203ZM10.0003 21.5956C10.0003 21.1461 10.3585 20.7816 10.8003 20.7816H17.2003C17.6422 20.7816 18.0003 21.1461 18.0003 21.5956C18.0003 22.0451 17.6422 22.4096 17.2003 22.4096H10.8003C10.3585 22.4096 10.0003 22.0451 10.0003 21.5956Z" fill="#1C274C"/>
</svg>
